<svg width="36" height="37" viewBox="0 0 36 37" fill="none" xmlns="http://www.w3.org/2000/svg">
<path fill-rule="evenodd" clip-rule="evenodd" d="M31.3333 10.0151C31.3333 11.8406 28.5591 13.4305 24.46 14.2576C28.5591 15.0847 31.3333 16.6745 31.3333 18.5C31.3333 20.3255 28.5591 21.9153 24.46 22.7424C28.5591 23.5695 31.3333 25.1594 31.3333 26.9849C31.3333 29.6626 25.3638 31.8333 18 31.8333C10.6362 31.8333 4.66667 29.6626 4.66667 26.9849C4.66667 25.1594 7.44096 23.5695 11.54 22.7424C7.44096 21.9153 4.66667 20.3255 4.66667 18.5C4.66667 16.6745 7.44096 15.0847 11.54 14.2576C7.44096 13.4305 4.66667 11.8406 4.66667 10.0151C4.66667 7.33741 10.6362 5.16667 18 5.16667C25.3638 5.16667 31.3333 7.33741 31.3333 10.0151Z" fill="#E1FF01"/>
</svg>
